<?xml version="1.0" encoding="utf-8"?>
<!-- Generator: Adobe Illustrator 15.0.0, SVG Export Plug-In . SVG Version: 6.00 Build 0)  -->
<!DOCTYPE svg PUBLIC "-//W3C//DTD SVG 1.1//EN" "http://www.w3.org/Graphics/SVG/1.1/DTD/svg11.dtd">
<svg version="1.1" id="Ebene_1" xmlns="http://www.w3.org/2000/svg" xmlns:xlink="http://www.w3.org/1999/xlink" x="0px" y="0px"
	 width="595.28px" height="841.89px" viewBox="0 0 595.28 841.89" enable-background="new 0 0 595.28 841.89" xml:space="preserve">
<g>
	<path fill="#0B72B5" d="M65.746,59.707c0-2.94,0.948-5.679,2.551-7.9l-2.451-2.46c-2.216,2.858-3.536,6.478-3.536,10.365
		c0,0.767,0.057,1.288,0.156,2.288h3.471C65.813,61,65.746,60.475,65.746,59.707z"/>
	<path fill="#0B72B5" d="M59.661,59.707c0-4.617,1.614-8.884,4.3-12.235l-2.444-2.455C58.216,49,56.23,54.146,56.23,59.712
		c0,0.76,0.038,1.288,0.11,2.288h3.457C59.711,61,59.661,60.471,59.661,59.707z"/>
	<path fill="#0B72B5" d="M53.685,62c-0.065-1-0.104-1.533-0.104-2.293c0-6.295,2.283-12.085,6.062-16.554l-2.433-2.442
		c-4.397,5.095-7.066,11.76-7.066,19.001c0,0.76,0.039,1.288,0.1,2.288H53.685z"/>
</g>
</svg>
